<?xml version="1.0" encoding="utf-8"?>
<!-- Generator: Adobe Illustrator 21.0.0, SVG Export Plug-In . SVG Version: 6.00 Build 0)  -->
<svg version="1.1" xmlns="http://www.w3.org/2000/svg" xmlns:xlink="http://www.w3.org/1999/xlink" x="0px" y="0px"
	 viewBox="0 0 117.5 121.9" style="enable-background:new 0 0 117.5 121.9;" xml:space="preserve">
<style type="text/css">
	.st0{display:none;}
	.st1{display:inline;fill:#0F142C;}
	.st2{display:inline;}
	.st3{fill:#FFFFFF;}
</style>
<g id="Layer_1" class="st0">
	<rect x="9.2" y="11.4" class="st1" width="99" height="99"/>
</g>
<g id="CLEAR" class="st0">
	<g class="st2">
		<g>
			<rect x="41.7" y="75.6" class="st3" width="5.5" height="9.4"/>
			<path class="st3" d="M82.8,61.1c0-0.1,0-0.2,0-0.3c0-7.5-2.7-13.1-6.9-17.2c-5.9-5.7-12.6-6.6-18.9-6.6H41.7v16.3h-9.3v1h20.4
				v-0.5v-0.5v-7h3c3.4,0,8.1,0.5,11.7,4.1c1.8,1.8,3.9,5.1,4,10.2h-9.1v1h5.5c-0.1,2.6-0.8,4.9-1.9,6.8h3.8c-0.8,1.7-1.8,3-3,4
				c-3.6,3-8.6,3.2-10.9,3.2h-2h-1V85h4.5c4,0,12.3-0.5,18.9-7.2c2.5-2.5,4.4-5.6,5.5-9.4h-2.1c0.7-2.2,1.1-4.6,1.2-7.3H82.8z"/>
		</g>
		<path class="st3" d="M108.3,110.5h-99v-99h99V110.5z M12.2,107.5h93v-93h-93V107.5z"/>
	</g>
</g>
<g id="no_border">
	<g>
		<g>
			<rect x="41.7" y="75.6" class="st3" width="5.5" height="9.4"/>
			<path class="st3" d="M82.8,61.1c0-0.1,0-0.2,0-0.3c0-7.5-2.7-13.1-6.9-17.2c-5.9-5.7-12.6-6.6-18.9-6.6H41.7v16.3h-9.3v1h20.4
				v-0.5v-0.5v-7h3c3.4,0,8.1,0.5,11.7,4.1c1.8,1.8,3.9,5.1,4,10.2h-9.1v1h5.5c-0.1,2.6-0.8,4.9-1.9,6.8h3.8c-0.8,1.7-1.8,3-3,4
				c-3.6,3-8.6,3.2-10.9,3.2h-2h-1V85h4.5c4,0,12.3-0.5,18.9-7.2c2.5-2.5,4.4-5.6,5.5-9.4h-2.1c0.7-2.2,1.1-4.6,1.2-7.3H82.8z"/>
		</g>
	</g>
</g>
</svg>
