<?xml version="1.0" encoding="utf-8"?>
<!-- Generator: Adobe Illustrator 21.0.0, SVG Export Plug-In . SVG Version: 6.00 Build 0)  -->
<svg version="1.1" id="no_border" xmlns="http://www.w3.org/2000/svg" xmlns:xlink="http://www.w3.org/1999/xlink" x="0px" y="0px"
	 viewBox="0 0 51.3 49" style="enable-background:new 0 0 51.3 49;" xml:space="preserve">
<style type="text/css">
	.st0{fill:#FFFFFF;}
</style>
<g>
	<rect x="9.8" y="39.1" class="st0" width="5.5" height="9.4"/>
	<path class="st0" d="M50.8,24.6c0-0.1,0-0.2,0-0.3c0-7.5-2.7-13.1-6.9-17.2C38,1.4,31.3,0.5,25,0.5H9.8v16.3H0.5v1h20.4v-0.5v-0.5
		v-7h3c3.4,0,8.1,0.5,11.7,4.1c1.8,1.8,3.9,5.1,4,10.2h-9.1v1h5.5c-0.1,2.6-0.8,4.9-1.9,6.8h3.8c-0.8,1.7-1.8,3-3,4
		c-3.6,3-8.6,3.2-10.9,3.2h-2h-1v9.4h4.5c4,0,12.3-0.5,18.9-7.2c2.5-2.5,4.4-5.6,5.5-9.4h-2.1c0.7-2.2,1.1-4.6,1.2-7.3H50.8z"/>
</g>
</svg>
