<?xml version="1.0" encoding="utf-8"?>
<!-- Generator: Adobe Illustrator 21.1.0, SVG Export Plug-In . SVG Version: 6.00 Build 0)  -->
<svg version="1.1" id="Layer_1" xmlns="http://www.w3.org/2000/svg" xmlns:xlink="http://www.w3.org/1999/xlink" x="0px" y="0px"
	 viewBox="0 0 32 32" style="enable-background:new 0 0 32 32;" xml:space="preserve" fill="#ffffff">
<g>
	<path d="M16.1,2.1c3.8,0,7.7,0,11.5,0c1.2,0,2.1,0.7,2.4,1.9c0,0.2,0,0.4,0,0.6c0,7.7,0,15.3,0,23c0,1.5-1,2.5-2.5,2.5
		c-7.6,0-15.3,0-22.9,0c-1.5,0-2.5-1-2.5-2.5c0-7.6,0-15.3,0-22.9C2.1,3.2,3,2.3,4,2.2c0.2,0,0.5,0,0.7,0C8.5,2.1,12.3,2.1,16.1,2.1
		z M16.6,17.2c0,3.1,0,6.2,0,9.3c1.4,0,2.7,0,4.1,0c0-3.1,0-6.2,0-9.3c1.2,0,2.3,0,3.4,0c0-1.2,0-2.3,0-3.5c-1.2,0-2.3,0-3.5,0
		c0-0.7,0.1-1.4,0.1-2c0-0.3,0.3-0.6,0.6-0.6c0.3-0.1,0.7-0.2,1-0.2c0.6,0,1.2-0.1,1.8-0.1c0-1.2,0-2.3,0-3.5
		c-1.7,0-3.4-0.1-5.1,0.3c-1.4,0.3-2.1,1-2.2,2.5c-0.1,1.1-0.1,2.2-0.2,3.2c0,0.1,0,0.2,0,0.4c-0.8,0-1.6,0-2.3,0c0,1.2,0,2.3,0,3.5
		C15.1,17.2,15.9,17.2,16.6,17.2z"/>
</g>
</svg>
