<?xml version="1.0" encoding="utf-8"?>
<!-- Generator: Adobe Illustrator 21.1.0, SVG Export Plug-In . SVG Version: 6.00 Build 0)  -->
<svg version="1.1" xmlns="http://www.w3.org/2000/svg" xmlns:xlink="http://www.w3.org/1999/xlink" x="0px" y="0px"
	 viewBox="0 0 32 32" style="enable-background:new 0 0 32 32;" xml:space="preserve">
<g id="Layer_2">
	<g>
		<path d="M16,30.4c-1.9,0-3.9-0.1-5.8-0.1c-1.7,0-3.3-0.3-4.7-1.2c-1.9-1.2-3-2.9-3.4-5c-0.2-1.3-0.3-2.6-0.3-3.9
			c0-2.8,0-5.6,0-8.5c0-1.5,0.1-3,0.6-4.4c1-2.8,2.9-4.4,5.7-5c1.3-0.2,2.6-0.3,3.9-0.3c2.8,0,5.7,0,8.5,0c1.5,0,3,0.1,4.4,0.6
			c2.8,1,4.5,2.9,5,5.8c0.2,1.3,0.3,2.6,0.3,3.9c0,2.8,0,5.6,0,8.5c0,1.5-0.1,3-0.6,4.4c-1,2.8-2.9,4.4-5.7,5
			c-1.3,0.2-2.6,0.3-3.9,0.3C18.7,30.4,17.3,30.3,16,30.4C16,30.3,16,30.3,16,30.4z M27.7,15.8C27.7,15.8,27.7,15.8,27.7,15.8
			c-0.1-1.1,0-2.3-0.1-3.4c0-1.1-0.1-2.2-0.2-3.2c-0.2-2.4-1.7-4.1-4.1-4.5c-1.3-0.2-2.6-0.3-3.9-0.3c-2.4,0-4.7,0-7.1,0
			c-1.2,0-2.5,0.1-3.7,0.2C6.7,5,5.3,6.1,4.7,8.2c-0.2,0.7-0.3,1.3-0.3,2c-0.1,2.6-0.1,5.2-0.1,7.7c0,1.6,0,3.3,0.2,4.9
			c0.2,2.4,1.7,4.1,4,4.5c1.3,0.2,2.6,0.3,3.9,0.3c2.4,0,4.7,0,7.1,0c1.1,0,2.2-0.1,3.3-0.2c1-0.1,2-0.4,2.8-1.1
			c1.3-1.1,1.8-2.5,1.9-4.1C27.7,20.2,27.7,18,27.7,15.8z"/>
		<path d="M16,23.4c-4.1,0-7.3-3.3-7.3-7.4c0-4,3.3-7.3,7.4-7.3c4,0,7.2,3.3,7.2,7.4C23.3,20.1,20,23.4,16,23.4z M16,20.8
			c2.6,0,4.7-2.2,4.7-4.8c0-2.6-2.2-4.8-4.8-4.7c-2.6,0-4.7,2.2-4.7,4.8C11.3,18.7,13.4,20.8,16,20.8z"/>
		<path d="M23.7,6.7c1,0,1.7,0.8,1.7,1.7c0,0.9-0.8,1.7-1.7,1.7c-1,0-1.7-0.8-1.7-1.7C21.9,7.5,22.7,6.7,23.7,6.7z"/>
	</g>
</g>
<g id="Layer_1">
</g>
</svg>
